<svg width="35" height="23" fill="none" xmlns="http://www.w3.org/2000/svg"><path fill-rule="evenodd" clip-rule="evenodd" d="m9.668.307 1.484.889a.503.503 0 0 1 .129.75C9.118 4.58 7.154 7.435 7.154 10.973c2.955 0 6 2.405 6 5.485 0 4.303-3.5 6.982-7 6.483-3.5-.498-5.57-2.992-6-5.984C-.83 10.091 3.003 3.91 8.645.314A.973.973 0 0 1 9.668.307Zm21 0 1.484.889a.503.503 0 0 1 .129.75c-2.163 2.633-4.127 5.488-4.127 9.026 2.955 0 6 2.405 6 5.485 0 4.303-3.5 6.982-7 6.483-3.5-.498-5.57-2.992-6-5.984C20.17 10.091 24.003 3.91 29.645.314a.973.973 0 0 1 1.023-.007Z" fill="#0045FF"/></svg>