<svg width="34" height="34" fill="none" xmlns="http://www.w3.org/2000/svg"><path fill-rule="evenodd" clip-rule="evenodd" d="m9.626 6.142 1.474.881a.503.503 0 0 1 .128.751c-2.152 2.62-4.106 5.462-4.106 8.982 2.941 0 5.973 2.395 5.973 5.461 0 4.283-3.484 6.95-6.969 6.454-3.484-.496-5.545-2.979-5.972-5.957-.98-6.833 2.834-12.986 8.45-16.565a.973.973 0 0 1 1.022-.007Zm20.906 0 1.473.882a.503.503 0 0 1 .128.751c-2.152 2.62-4.106 5.461-4.106 8.982 2.942 0 5.973 2.395 5.973 5.461 0 4.283-3.484 6.95-6.968 6.454-3.485-.496-5.546-2.979-5.973-5.957-.98-6.833 2.834-12.986 8.45-16.565a.973.973 0 0 1 1.023-.008Z" fill="#0D86FF"/></svg>